<?xml version="1.0" standalone="no"?>
<!DOCTYPE svg PUBLIC "-//W3C//DTD SVG 20010904//EN"
 "http://www.w3.org/TR/2001/REC-SVG-20010904/DTD/svg10.dtd">
<svg version="1.0" xmlns="http://www.w3.org/2000/svg"
 width="700.000000pt" height="700.000000pt" viewBox="0 0 700.000000 700.000000"
 preserveAspectRatio="xMidYMid meet">
<metadata>
Created by potrace 1.11, written by Peter Selinger 2001-2013
</metadata>
<g transform="translate(0.000000,700.000000) scale(0.100000,-0.100000)"
fill="#000000" stroke="none">
<path d="M2103 6688 c-153 -36 -319 -153 -410 -290 -88 -131 -151 -311 -187
-533 -27 -164 -28 -524 -2 -740 3 -28 8 -70 11 -95 9 -74 16 -123 24 -161 8
-37 4 -53 -14 -55 -30 -5 -206 -50 -309 -80 -807 -236 -1246 -628 -1212 -1085
8 -108 39 -205 102 -313 118 -203 276 -367 479 -497 63 -40 75 -44 131 -44 53
0 67 4 89 25 31 29 55 81 55 117 0 51 -41 102 -120 150 -91 55 -211 154 -265
219 -22 26 -44 52 -50 58 -39 44 -111 165 -129 216 -20 59 -19 157 2 226 82
264 494 513 1112 672 188 48 178 49 190 -1 70 -271 152 -534 249 -794 l30 -83
-99 -192 c-148 -288 -252 -522 -350 -788 -45 -122 -117 -348 -125 -390 -3 -14
-13 -55 -24 -92 -11 -38 -18 -68 -16 -68 3 0 1 -10 -4 -23 -5 -13 -12 -41 -15
-63 -4 -21 -8 -46 -11 -54 -2 -8 -6 -31 -9 -50 -3 -19 -10 -62 -16 -95 -5 -33
-13 -107 -17 -165 -22 -325 10 -536 112 -745 43 -89 67 -125 122 -181 75 -77
173 -140 273 -176 57 -20 83 -23 215 -23 125 1 171 5 277 28 225 48 444 138
615 251 91 60 116 93 116 155 1 61 -27 106 -79 131 -60 29 -101 20 -197 -43
-231 -151 -479 -228 -727 -224 -104 2 -120 5 -173 31 -179 87 -266 299 -262
636 2 140 9 222 27 325 5 33 12 71 14 85 3 14 10 50 16 80 6 30 12 60 14 65
36 182 191 634 294 859 15 34 38 84 50 111 12 28 46 99 75 159 l53 109 46 -98
c25 -53 46 -99 46 -102 0 -2 44 -93 99 -201 109 -219 229 -439 333 -610 37
-63 68 -116 68 -118 0 -3 4 -10 10 -17 5 -7 65 -95 132 -197 151 -227 190
-281 348 -480 148 -187 199 -245 345 -398 447 -466 918 -741 1271 -740 113 0
201 21 312 74 263 126 432 448 469 894 9 106 9 374 0 500 -6 95 -34 322 -42
350 -2 8 -7 38 -11 65 -3 28 -12 77 -19 110 -8 33 -17 76 -20 95 -3 19 -17 82
-31 140 -14 58 -27 112 -29 120 -5 24 -64 231 -75 264 -6 17 -29 90 -51 161
-80 252 -217 602 -330 843 -21 46 -39 88 -39 92 0 4 -16 22 -35 38 -66 59
-161 52 -212 -15 -40 -52 -38 -115 6 -208 157 -331 336 -820 432 -1183 54
-203 113 -475 124 -573 3 -26 8 -58 10 -70 5 -22 12 -79 21 -154 18 -163 23
-397 11 -540 -22 -260 -91 -462 -198 -579 -51 -56 -141 -109 -204 -121 -32 -6
-134 -7 -175 -1 -123 18 -309 99 -470 207 -225 150 -412 319 -681 616 -117
128 -338 420 -486 641 -126 189 -342 553 -425 717 -170 337 -230 466 -340 730
-11 28 -24 57 -28 66 -6 11 0 33 17 65 101 190 400 647 575 879 l113 150 160
-1 c144 -1 405 -11 495 -19 19 -2 78 -6 130 -10 52 -3 106 -8 120 -10 14 -2
52 -6 85 -10 70 -7 140 -15 175 -20 14 -2 61 -9 105 -15 44 -6 103 -15 130
-20 28 -5 66 -12 85 -14 19 -3 71 -12 114 -21 44 -8 91 -17 105 -20 159 -28
527 -126 731 -194 600 -200 1050 -465 1241 -730 157 -218 131 -432 -75 -624
-52 -49 -215 -161 -305 -209 -110 -60 -118 -195 -16 -258 65 -40 134 -19 324
99 258 160 420 363 465 584 40 194 -21 416 -167 606 -56 73 -176 191 -251 249
-34 25 -63 49 -66 52 -5 5 -149 100 -202 133 -98 61 -298 160 -458 226 -69 29
-134 57 -145 62 -73 33 -552 180 -664 204 -9 2 -65 16 -126 30 -60 15 -119 29
-130 31 -11 2 -54 11 -95 19 -82 16 -272 50 -335 60 -22 3 -51 7 -65 10 -30 5
-244 31 -315 39 -112 12 -152 16 -325 31 -79 7 -323 18 -397 19 l-71 0 31 41
c56 71 458 468 577 569 545 466 1039 703 1357 654 134 -20 248 -104 306 -222
32 -65 63 -180 72 -263 7 -64 7 -268 0 -323 -16 -143 -17 -197 -2 -226 44 -85
143 -113 213 -59 46 35 61 68 69 150 4 39 9 79 11 90 5 25 5 297 0 345 -42
433 -237 699 -566 775 -146 33 -331 24 -515 -25 -359 -96 -815 -380 -1260
-783 -181 -164 -541 -541 -645 -675 l-26 -32 -124 -5 c-122 -5 -240 -12 -330
-20 -25 -2 -79 -7 -120 -11 -102 -9 -171 -17 -255 -29 -132 -18 -135 -18 -136
1 -1 22 -6 58 -12 99 -49 295 -53 662 -11 900 32 184 103 336 196 422 88 80
158 104 293 99 165 -5 333 -73 558 -225 147 -99 153 -102 195 -103 83 -1 146
61 145 143 0 27 -7 58 -16 72 -34 52 -228 183 -394 267 -249 124 -481 165
-680 118z m440 -2052 c-4 -6 -46 -65 -93 -131 -117 -162 -237 -343 -330 -495
-41 -67 -39 -64 -45 -59 -9 9 -105 328 -144 477 -26 101 -35 152 -28 153 7 0
21 2 32 4 89 13 141 20 240 30 28 3 66 8 85 10 19 3 80 7 135 10 55 4 100 7
102 8 1 1 13 3 27 3 17 1 23 -2 19 -10z"/>
<path d="M3429 4079 c-298 -41 -516 -291 -510 -586 2 -97 18 -162 61 -250 145
-295 500 -410 793 -256 63 33 153 110 199 170 88 114 129 306 99 463 -15 75
-80 204 -136 267 -92 104 -257 187 -384 192 -30 1 -57 3 -60 5 -3 1 -31 -1
-62 -5z"/>
</g>
</svg>
