<svg width="23.999999999999996" height="23.999999999999996" xmlns="http://www.w3.org/2000/svg">
 <title/>

 <g>
  <title>background</title>
  <rect fill="none" id="canvas_background" height="402" width="582" y="-1" x="-1"/>
 </g>
 <g>
  <title>Layer 1</title>
  <path id="svg_1" fill="#ffffff" d="m23.82,11.82c-1,-2.6 -6.65,-4.65 -12.95,-4.78c2.58,-2.92 5.22,-4.55 6.73,-4.33s1.4,2.13 1.26,3.29a0.5,0.5 0 0 0 0.43,0.56a0.51,0.51 0 0 0 0.56,-0.43c0.34,-2.53 -0.42,-4.13 -2.1,-4.37c-2.12,-0.35 -5.33,1.82 -8.18,5.24a25.1,25.1 0 0 0 -3.28,0.28c-0.38,-2.22 -0.23,-4 0.42,-4.78c0.91,-1.14 2.56,-0.14 3.47,0.55a0.5,0.5 0 0 0 0.61,-0.79c-2.03,-1.54 -3.79,-1.68 -4.86,-0.36c-0.88,1.1 -1.05,3.1 -0.63,5.58c-2.36,0.52 -4.1,1.36 -4.87,2.52a2.29,2.29 0 0 0 -0.25,2.22a4.83,4.83 0 0 0 2,2.15a0.5,0.5 0 1 0 0.53,-0.85a4,4 0 0 1 -1.65,-1.67a1.3,1.3 0 0 1 0.15,-1.29c0.54,-0.79 2,-1.59 4.24,-2.06a24.32,24.32 0 0 0 1,3.16c-2.15,3.9 -2.93,7.44 -2,9.32a2.31,2.31 0 0 0 1.81,1.34a3,3 0 0 0 0.44,0a6.1,6.1 0 0 0 3.1,-1.09a0.5,0.5 0 1 0 -0.53,-0.85a4.62,4.62 0 0 1 -2.87,0.92a1.31,1.31 0 0 1 -1.05,-0.78c-0.59,-1.22 -0.27,-4 1.61,-7.68a30.23,30.23 0 0 0 1.6,3.16c2.4,4.13 5.25,6.8 7.45,7l0.21,0a2.29,2.29 0 0 0 1.85,-0.9c1.53,-1.92 0.95,-6.77 -1.41,-11.8a0.5,0.5 0 0 0 -0.91,0.42c2.13,4.55 2.79,9.17 1.53,10.75a1.33,1.33 0 0 1 -1.21,0.51c-1.51,-0.11 -4.16,-2.15 -6.66,-6.46a28.8,28.8 0 0 1 -1.86,-3.84l0.08,-0.14a28.92,28.92 0 0 1 2.37,-3.54l0.17,0c6.59,0 11.88,2.16 12.68,4.17c0.44,1.11 -0.62,1.93 -1.59,2.42a0.5,0.5 0 0 0 0.46,0.89c1.9,-0.93 2.65,-2.27 2.1,-3.66zm-16.7,-1.33a22.48,22.48 0 0 1 -0.63,-2.19a22.66,22.66 0 0 1 2.26,-0.23c-0.57,0.76 -1.12,1.57 -1.63,2.42z"/>
  <circle id="svg_2" fill="#ffffff" r="2" cy="12" cx="12"/>
 </g>
</svg>